<svg width="128" height="45" viewBox="0 0 128 45" fill="none" xmlns="http://www.w3.org/2000/svg">
<g filter="url(#filter0_d_27_332)">
<path d="M5.1025 28.48C4.67583 28.48 4.39583 28.28 4.2625 27.88C4.12917 27.48 4.0625 27 4.0625 26.44C4.0625 25.5067 4.11583 24.52 4.2225 23.48C4.32917 22.4133 4.43583 21.3733 4.5425 20.36L6.7425 0.199998L10.0625 0.159998C11.1558 0.133332 11.9025 0.213332 12.3025 0.399998C12.7292 0.559999 13.0092 0.906666 13.1425 1.44L19.0625 23.08L16.9825 23L26.2225 2.88C26.5692 2.13333 27.2092 1.50667 28.1425 1C29.0758 0.466665 30.2092 0.199998 31.5425 0.199998C32.0758 0.199998 32.4758 0.333331 32.7425 0.599998C33.0358 0.839998 33.1425 1.32 33.0625 2.04L30.3425 28.32H27.1425C26.7958 28.32 26.5292 28.1067 26.3425 27.68C26.1558 27.2533 26.0625 26.6533 26.0625 25.88C26.0625 24.7867 26.0892 23.6 26.1425 22.32C26.2225 21.04 26.3292 19.8133 26.4625 18.64L27.9425 6L28.1825 6.16L22.9425 17.44C21.8758 19.7333 21.0092 21.56 20.3425 22.92C19.6758 24.2533 19.1292 25.2533 18.7025 25.92C18.3025 26.5867 17.9558 27.0267 17.6625 27.24C17.3692 27.4267 17.0625 27.52 16.7425 27.52C16.3958 27.52 16.1025 27.4533 15.8625 27.32C15.6492 27.16 15.4758 26.84 15.3425 26.36L9.3825 5.96L9.7425 5.92L8.6225 16.28C8.3825 18.3867 8.27583 20.0667 8.3025 21.32C8.32917 22.5733 8.40917 23.5467 8.5425 24.24C8.7025 24.9067 8.84917 25.4267 8.9825 25.8C9.11583 26.1733 9.1825 26.52 9.1825 26.84C9.1825 27.1333 9.0225 27.3867 8.7025 27.6C8.3825 27.7867 7.9825 27.9467 7.5025 28.08C7.0225 28.2133 6.55583 28.3067 6.1025 28.36C5.67583 28.44 5.3425 28.48 5.1025 28.48ZM37.9337 28.52C36.8937 28.52 36.0804 28.24 35.4937 27.68C34.9337 27.0933 34.6537 26.2267 34.6537 25.08C34.6537 24.68 34.6537 24.28 34.6537 23.88C34.6804 23.48 34.7204 23 34.7737 22.44C34.8537 21.88 34.9471 21.16 35.0537 20.28L36.5737 8.36H39.3737C39.8271 8.36 40.1204 8.62667 40.2537 9.16C40.4137 9.66667 40.4937 10.2933 40.4937 11.04C40.4937 11.6 40.4537 12.3333 40.3737 13.24C40.2937 14.1467 40.1737 15.1467 40.0137 16.24L39.5337 19.52C39.4271 20.2667 39.3471 20.9333 39.2937 21.52C39.2671 22.1067 39.2537 22.5867 39.2537 22.96C39.2537 23.4933 39.3071 23.9067 39.4137 24.2C39.5471 24.4667 39.7871 24.6 40.1337 24.6C40.5337 24.6 41.0404 24.3067 41.6537 23.72C42.2671 23.1333 42.9071 22.36 43.5738 21.4C44.2671 20.44 44.9071 19.4133 45.4938 18.32C46.0804 17.2 46.5604 16.12 46.9337 15.08C47.3071 14.04 47.4937 13.1467 47.4937 12.4C47.4937 11.7867 47.4137 11.28 47.2538 10.88C47.1204 10.4533 47.0671 10.1067 47.0938 9.84C47.0938 9.6 47.2404 9.38667 47.5338 9.2C47.8538 9.01333 48.2271 8.86667 48.6538 8.76C49.0804 8.62667 49.5071 8.53333 49.9338 8.48C50.3604 8.4 50.6938 8.36 50.9338 8.36C51.3871 8.36 51.7338 8.62667 51.9738 9.16C52.2404 9.69333 52.3204 10.4533 52.2137 11.44L50.3338 28.4H47.5338C47.2137 28.4 46.9604 28.24 46.7737 27.92C46.5871 27.5733 46.4537 27.1867 46.3737 26.76C46.3204 26.3333 46.2937 26.0133 46.2937 25.8C46.2937 25.1867 46.3737 24.52 46.5338 23.8C46.7204 23.08 46.9737 22.16 47.2937 21.04C47.6404 19.92 48.0538 18.48 48.5338 16.72V17.4C47.4938 20.12 46.3471 22.2933 45.0937 23.92C43.8404 25.5467 42.6004 26.72 41.3737 27.44C40.1471 28.16 39.0004 28.52 37.9337 28.52ZM59.3884 28.64C57.3618 28.64 55.7618 28.3333 54.5884 27.72C53.4418 27.08 52.8684 26.2267 52.8684 25.16C52.8684 24.68 52.9351 24.24 53.0684 23.84C53.2284 23.4133 53.4551 23.2 53.7484 23.2C53.8551 23.2 53.9751 23.2267 54.1084 23.28C54.2418 23.3333 54.4951 23.48 54.8684 23.72C55.4018 24.0667 55.9884 24.3867 56.6284 24.68C57.2951 24.9733 57.9618 25.2133 58.6284 25.4C59.3218 25.56 59.9618 25.64 60.5484 25.64C61.4018 25.64 62.0151 25.44 62.3884 25.04C62.7884 24.6133 62.9884 24.0533 62.9884 23.36C62.9884 22.8533 62.8284 22.44 62.5084 22.12C62.2151 21.7733 61.7351 21.3867 61.0684 20.96L58.5884 19.36C57.5484 18.6933 56.6684 17.9867 55.9484 17.24C55.2551 16.4667 54.9084 15.4667 54.9084 14.24C54.9084 12.5067 55.5751 11.1067 56.9084 10.04C58.2418 8.94667 60.1218 8.4 62.5484 8.4C64.2551 8.4 65.5084 8.57333 66.3084 8.92C67.1084 9.26667 67.5084 9.86667 67.5084 10.72C67.5084 11.3867 67.4018 11.9467 67.1884 12.4C67.0018 12.8533 66.7351 13.08 66.3884 13.08C66.2818 13.08 66.1351 13.0533 65.9484 13C65.7884 12.9467 65.6418 12.88 65.5084 12.8C65.2951 12.6667 64.9618 12.48 64.5084 12.24C64.0551 12 63.5484 11.7867 62.9884 11.6C62.4284 11.3867 61.8418 11.28 61.2284 11.28C60.6151 11.28 60.1084 11.4667 59.7084 11.84C59.3351 12.1867 59.1484 12.6667 59.1484 13.28C59.1484 13.7867 59.3084 14.2133 59.6284 14.56C59.9484 14.9067 60.4818 15.2667 61.2284 15.64L63.8284 16.84C64.9218 17.3467 65.8018 17.9467 66.4684 18.64C67.1618 19.3067 67.5084 20.3067 67.5084 21.64C67.5084 23.2133 67.1218 24.52 66.3484 25.56C65.6018 26.6 64.6018 27.3733 63.3484 27.88C62.1218 28.3867 60.8018 28.64 59.3884 28.64ZM72.8013 28.64C71.3079 28.64 70.2413 28.04 69.6013 26.84C68.9613 25.6133 68.6413 23.9067 68.6413 21.72C68.6413 19.7733 68.9213 17.9867 69.4813 16.36C70.0679 14.7333 70.8546 13.3333 71.8413 12.16C72.8279 10.96 73.9746 10.04 75.2813 9.4C76.5879 8.73333 77.9746 8.4 79.4413 8.4C80.5879 8.4 81.6279 8.56 82.5613 8.88C83.5213 9.17333 84.3346 9.48 85.0013 9.8L83.8413 14C83.1213 13.52 82.3079 13.08 81.4013 12.68C80.5213 12.28 79.6946 11.9733 78.9213 11.76C78.1746 11.52 77.6146 11.4 77.2413 11.4C76.4946 11.4 75.8013 11.7733 75.1613 12.52C74.5479 13.24 74.0546 14.2533 73.6813 15.56C73.3346 16.84 73.1613 18.32 73.1613 20C73.1613 21.5467 73.2679 22.72 73.4813 23.52C73.7213 24.32 74.0946 24.72 74.6013 24.72C74.9479 24.72 75.5346 24.3333 76.3613 23.56C77.1879 22.76 78.1879 21.44 79.3613 19.6C80.5346 17.76 81.7746 15.2667 83.0813 12.12L84.2013 15.68C82.7613 18.88 81.3879 21.4267 80.0813 23.32C78.7746 25.2133 77.5213 26.5733 76.3213 27.4C75.1213 28.2267 73.9479 28.64 72.8013 28.64ZM82.3613 28.4C81.8279 28.4 81.5079 28.1467 81.4013 27.64C81.2946 27.1067 81.2413 26.5467 81.2413 25.96C81.2413 25.5067 81.2946 24.9467 81.4013 24.28C81.5346 23.6133 81.6946 22.8933 81.8813 22.12C82.0679 21.3467 82.2679 20.5867 82.4813 19.84L83.3613 16.84L82.2013 15.8L83.1613 9.76C84.0146 9.62667 84.7613 9.45333 85.4013 9.24C86.0679 9.02667 86.6146 8.84 87.0413 8.68C87.4946 8.52 87.8146 8.44 88.0013 8.44C88.2946 8.44 88.4413 8.6 88.4413 8.92C88.4413 9.05333 88.2679 9.62667 87.9213 10.64C87.6013 11.6267 87.2413 12.8933 86.8413 14.44C86.4679 15.9867 86.1879 17.6667 86.0013 19.48L85.1613 28.4H82.3613ZM89.6884 36.76C89.3418 36.76 89.0884 36.64 88.9284 36.4C88.7684 36.1867 88.6884 35.8933 88.6884 35.52C88.6884 34.96 88.7284 34.3467 88.8084 33.68L91.7684 9.16C92.0351 7.10667 92.6218 5.41333 93.5284 4.08C94.4618 2.74667 95.6618 1.76 97.1284 1.12C98.5951 0.479998 100.262 0.159998 102.128 0.159998C104.022 0.159998 105.542 0.426665 106.688 0.959998C107.862 1.46667 108.448 2.30667 108.448 3.48C108.448 4.38666 108.182 5.05333 107.648 5.48C107.115 5.88 106.502 6.08 105.808 6.08C105.302 6.08 104.835 5.93333 104.408 5.64C104.008 5.34667 103.595 5.01333 103.168 4.64C102.768 4.24 102.275 3.89333 101.688 3.6C101.102 3.30667 100.368 3.16 99.4884 3.16C98.2884 3.16 97.4884 3.61333 97.0884 4.52C96.7151 5.4 96.4484 6.57333 96.2884 8.04L94.9684 19.68C94.7818 21.2533 94.6218 22.8533 94.4884 24.48C94.3551 26.08 94.2218 27.5733 94.0884 28.96C94.0084 29.6267 93.7951 30.4 93.4484 31.28C93.1284 32.16 92.7284 33.0133 92.2484 33.84C91.7684 34.6933 91.3018 35.3867 90.8484 35.92C90.3951 36.48 90.0084 36.76 89.6884 36.76ZM102.288 28.64C101.835 28.64 101.542 28.3867 101.408 27.88C101.275 27.3467 101.208 26.8 101.208 26.24C101.208 25.28 101.248 24.4267 101.328 23.68C101.435 22.9333 101.542 22.1067 101.648 21.2C101.755 20.2667 101.862 19.32 101.968 18.36C102.075 17.4 102.182 16.4533 102.288 15.52C102.422 14.2667 102.502 13.3867 102.528 12.88C102.582 12.3733 102.528 12.0667 102.368 11.96C102.208 11.8533 101.915 11.8 101.488 11.8L105.008 9C105.622 9 106.075 9.13333 106.368 9.4C106.662 9.64 106.848 9.94667 106.928 10.32C107.035 10.6933 107.088 11.04 107.088 11.36C107.088 12 107.062 12.5467 107.008 13C106.955 13.4533 106.875 14.1067 106.768 14.96L106.088 20.84C105.928 22.2267 105.782 23.3867 105.648 24.32C105.542 25.2533 105.435 26.0533 105.328 26.72C105.248 27.3867 105.168 28.0267 105.088 28.64H102.288ZM89.4884 11.8C89.3018 11.8 89.1684 11.7333 89.0884 11.6C89.0084 11.4667 88.9951 11.3067 89.0484 11.12L89.3284 10.36C89.5418 9.82667 89.7418 9.46667 89.9284 9.28C90.1418 9.09333 90.6618 9 91.4884 9H105.008L103.168 11.8H89.4884ZM113.388 27.04L112.428 21C113.414 18.44 114.414 16.2267 115.428 14.36C116.468 12.4667 117.521 11 118.588 9.96C119.654 8.92 120.734 8.4 121.828 8.4C122.441 8.4 122.881 8.6 123.148 9C123.414 9.37333 123.548 9.85333 123.548 10.44C123.548 10.9733 123.481 11.4933 123.348 12C123.241 12.48 123.068 12.88 122.828 13.2C122.614 13.52 122.348 13.68 122.028 13.68C121.734 13.68 121.401 13.5867 121.028 13.4C120.681 13.2133 120.201 13.12 119.588 13.12C119.188 13.12 118.681 13.5333 118.068 14.36C117.454 15.1867 116.814 16.2933 116.148 17.68C115.508 19.04 114.934 20.5467 114.428 22.2C113.921 23.8267 113.574 25.44 113.388 27.04ZM110.028 28.56C109.681 28.56 109.414 28.4933 109.228 28.36C109.068 28.2533 108.974 27.9467 108.948 27.44C108.948 26.9333 109.014 26.12 109.148 25L111.028 8.36H113.828C114.228 8.36 114.588 8.65333 114.908 9.24C115.228 9.82667 115.388 10.4933 115.388 11.24C115.388 11.5867 115.281 12.1333 115.068 12.88C114.881 13.6 114.654 14.3733 114.388 15.2C114.121 16 113.881 16.7067 113.668 17.32L112.628 20.6L114.108 20.36L113.388 27.04C113.361 27.3067 113.201 27.5467 112.908 27.76C112.614 27.9467 112.268 28.0933 111.868 28.2C111.494 28.3333 111.134 28.4267 110.788 28.48C110.441 28.5333 110.188 28.56 110.028 28.56Z" fill="white"/>
</g>
<defs>
<filter id="filter0_d_27_332" x="0.0625" y="0.119998" width="127.485" height="44.64" filterUnits="userSpaceOnUse" color-interpolation-filters="sRGB">
<feFlood flood-opacity="0" result="BackgroundImageFix"/>
<feColorMatrix in="SourceAlpha" type="matrix" values="0 0 0 0 0 0 0 0 0 0 0 0 0 0 0 0 0 0 127 0" result="hardAlpha"/>
<feOffset dy="4"/>
<feGaussianBlur stdDeviation="2"/>
<feComposite in2="hardAlpha" operator="out"/>
<feColorMatrix type="matrix" values="0 0 0 0 0 0 0 0 0 0 0 0 0 0 0 0 0 0 0.25 0"/>
<feBlend mode="normal" in2="BackgroundImageFix" result="effect1_dropShadow_27_332"/>
<feBlend mode="normal" in="SourceGraphic" in2="effect1_dropShadow_27_332" result="shape"/>
</filter>
</defs>
</svg>
