<svg width="128" height="46" viewBox="0 0 128 46" fill="none" xmlns="http://www.w3.org/2000/svg">
<g filter="url(#filter0_d_27_284)">
<path d="M5.1025 28.7495C4.67583 28.7495 4.39583 28.5495 4.2625 28.1495C4.12917 27.7495 4.0625 27.2695 4.0625 26.7095C4.0625 25.7762 4.11583 24.7895 4.2225 23.7495C4.32917 22.6829 4.43583 21.6429 4.5425 20.6295L6.7425 0.469529L10.0625 0.42953C11.1558 0.402863 11.9025 0.482863 12.3025 0.669529C12.7292 0.82953 13.0092 1.1762 13.1425 1.70953L19.0625 23.3495L16.9825 23.2695L26.2225 3.14953C26.5692 2.40286 27.2092 1.7762 28.1425 1.26953C29.0758 0.736196 30.2092 0.469529 31.5425 0.469529C32.0758 0.469529 32.4758 0.602862 32.7425 0.869529C33.0358 1.10953 33.1425 1.58953 33.0625 2.30953L30.3425 28.5895H27.1425C26.7958 28.5895 26.5292 28.3762 26.3425 27.9495C26.1558 27.5229 26.0625 26.9229 26.0625 26.1495C26.0625 25.0562 26.0892 23.8695 26.1425 22.5895C26.2225 21.3095 26.3292 20.0829 26.4625 18.9095L27.9425 6.26953L28.1825 6.42953L22.9425 17.7095C21.8758 20.0029 21.0092 21.8295 20.3425 23.1895C19.6758 24.5229 19.1292 25.5229 18.7025 26.1895C18.3025 26.8562 17.9558 27.2962 17.6625 27.5095C17.3692 27.6962 17.0625 27.7895 16.7425 27.7895C16.3958 27.7895 16.1025 27.7229 15.8625 27.5895C15.6492 27.4295 15.4758 27.1095 15.3425 26.6295L9.3825 6.22953L9.7425 6.18953L8.6225 16.5495C8.3825 18.6562 8.27583 20.3362 8.3025 21.5895C8.32917 22.8429 8.40917 23.8162 8.5425 24.5095C8.7025 25.1762 8.84917 25.6962 8.9825 26.0695C9.11583 26.4429 9.1825 26.7895 9.1825 27.1095C9.1825 27.4029 9.0225 27.6562 8.7025 27.8695C8.3825 28.0562 7.9825 28.2162 7.5025 28.3495C7.0225 28.4829 6.55583 28.5762 6.1025 28.6295C5.67583 28.7095 5.3425 28.7495 5.1025 28.7495ZM37.9337 28.7895C36.8937 28.7895 36.0804 28.5095 35.4937 27.9495C34.9337 27.3629 34.6537 26.4962 34.6537 25.3495C34.6537 24.9495 34.6537 24.5495 34.6537 24.1495C34.6804 23.7495 34.7204 23.2695 34.7737 22.7095C34.8537 22.1495 34.9471 21.4295 35.0537 20.5495L36.5737 8.62953H39.3737C39.8271 8.62953 40.1204 8.8962 40.2537 9.42953C40.4137 9.9362 40.4937 10.5629 40.4937 11.3095C40.4937 11.8695 40.4537 12.6029 40.3737 13.5095C40.2937 14.4162 40.1737 15.4162 40.0137 16.5095L39.5337 19.7895C39.4271 20.5362 39.3471 21.2029 39.2937 21.7895C39.2671 22.3762 39.2537 22.8562 39.2537 23.2295C39.2537 23.7629 39.3071 24.1762 39.4137 24.4695C39.5471 24.7362 39.7871 24.8695 40.1337 24.8695C40.5337 24.8695 41.0404 24.5762 41.6537 23.9895C42.2671 23.4029 42.9071 22.6295 43.5738 21.6695C44.2671 20.7095 44.9071 19.6829 45.4938 18.5895C46.0804 17.4695 46.5604 16.3895 46.9337 15.3495C47.3071 14.3095 47.4937 13.4162 47.4937 12.6695C47.4937 12.0562 47.4137 11.5495 47.2538 11.1495C47.1204 10.7229 47.0671 10.3762 47.0938 10.1095C47.0938 9.86953 47.2404 9.6562 47.5338 9.46953C47.8538 9.28286 48.2271 9.1362 48.6538 9.02953C49.0804 8.8962 49.5071 8.80286 49.9338 8.74953C50.3604 8.66953 50.6938 8.62953 50.9338 8.62953C51.3871 8.62953 51.7338 8.8962 51.9738 9.42953C52.2404 9.96286 52.3204 10.7229 52.2137 11.7095L50.3338 28.6695H47.5338C47.2137 28.6695 46.9604 28.5095 46.7737 28.1895C46.5871 27.8429 46.4537 27.4562 46.3737 27.0295C46.3204 26.6029 46.2937 26.2829 46.2937 26.0695C46.2937 25.4562 46.3737 24.7895 46.5338 24.0695C46.7204 23.3495 46.9737 22.4295 47.2937 21.3095C47.6404 20.1895 48.0538 18.7495 48.5338 16.9895V17.6695C47.4938 20.3895 46.3471 22.5629 45.0937 24.1895C43.8404 25.8162 42.6004 26.9895 41.3737 27.7095C40.1471 28.4295 39.0004 28.7895 37.9337 28.7895ZM59.3884 28.9095C57.3618 28.9095 55.7618 28.6029 54.5884 27.9895C53.4418 27.3495 52.8684 26.4962 52.8684 25.4295C52.8684 24.9495 52.9351 24.5095 53.0684 24.1095C53.2284 23.6829 53.4551 23.4695 53.7484 23.4695C53.8551 23.4695 53.9751 23.4962 54.1084 23.5495C54.2418 23.6029 54.4951 23.7495 54.8684 23.9895C55.4018 24.3362 55.9884 24.6562 56.6284 24.9495C57.2951 25.2429 57.9618 25.4829 58.6284 25.6695C59.3218 25.8295 59.9618 25.9095 60.5484 25.9095C61.4018 25.9095 62.0151 25.7095 62.3884 25.3095C62.7884 24.8829 62.9884 24.3229 62.9884 23.6295C62.9884 23.1229 62.8284 22.7095 62.5084 22.3895C62.2151 22.0429 61.7351 21.6562 61.0684 21.2295L58.5884 19.6295C57.5484 18.9629 56.6684 18.2562 55.9484 17.5095C55.2551 16.7362 54.9084 15.7362 54.9084 14.5095C54.9084 12.7762 55.5751 11.3762 56.9084 10.3095C58.2418 9.2162 60.1218 8.66953 62.5484 8.66953C64.2551 8.66953 65.5084 8.84286 66.3084 9.18953C67.1084 9.5362 67.5084 10.1362 67.5084 10.9895C67.5084 11.6562 67.4018 12.2162 67.1884 12.6695C67.0018 13.1229 66.7351 13.3495 66.3884 13.3495C66.2818 13.3495 66.1351 13.3229 65.9484 13.2695C65.7884 13.2162 65.6418 13.1495 65.5084 13.0695C65.2951 12.9362 64.9618 12.7495 64.5084 12.5095C64.0551 12.2695 63.5484 12.0562 62.9884 11.8695C62.4284 11.6562 61.8418 11.5495 61.2284 11.5495C60.6151 11.5495 60.1084 11.7362 59.7084 12.1095C59.3351 12.4562 59.1484 12.9362 59.1484 13.5495C59.1484 14.0562 59.3084 14.4829 59.6284 14.8295C59.9484 15.1762 60.4818 15.5362 61.2284 15.9095L63.8284 17.1095C64.9218 17.6162 65.8018 18.2162 66.4684 18.9095C67.1618 19.5762 67.5084 20.5762 67.5084 21.9095C67.5084 23.4829 67.1218 24.7895 66.3484 25.8295C65.6018 26.8695 64.6018 27.6429 63.3484 28.1495C62.1218 28.6562 60.8018 28.9095 59.3884 28.9095ZM72.8013 28.9095C71.3079 28.9095 70.2413 28.3095 69.6013 27.1095C68.9613 25.8829 68.6413 24.1762 68.6413 21.9895C68.6413 20.0429 68.9213 18.2562 69.4813 16.6295C70.0679 15.0029 70.8546 13.6029 71.8413 12.4295C72.8279 11.2295 73.9746 10.3095 75.2813 9.66953C76.5879 9.00286 77.9746 8.66953 79.4413 8.66953C80.5879 8.66953 81.6279 8.82953 82.5613 9.14953C83.5213 9.44286 84.3346 9.74953 85.0013 10.0695L83.8413 14.2695C83.1213 13.7895 82.3079 13.3495 81.4013 12.9495C80.5213 12.5495 79.6946 12.2429 78.9213 12.0295C78.1746 11.7895 77.6146 11.6695 77.2413 11.6695C76.4946 11.6695 75.8013 12.0429 75.1613 12.7895C74.5479 13.5095 74.0546 14.5229 73.6813 15.8295C73.3346 17.1095 73.1613 18.5895 73.1613 20.2695C73.1613 21.8162 73.2679 22.9895 73.4813 23.7895C73.7213 24.5895 74.0946 24.9895 74.6013 24.9895C74.9479 24.9895 75.5346 24.6029 76.3613 23.8295C77.1879 23.0295 78.1879 21.7095 79.3613 19.8695C80.5346 18.0295 81.7746 15.5362 83.0813 12.3895L84.2013 15.9495C82.7613 19.1495 81.3879 21.6962 80.0813 23.5895C78.7746 25.4829 77.5213 26.8429 76.3213 27.6695C75.1213 28.4962 73.9479 28.9095 72.8013 28.9095ZM82.3613 28.6695C81.8279 28.6695 81.5079 28.4162 81.4013 27.9095C81.2946 27.3762 81.2413 26.8162 81.2413 26.2295C81.2413 25.7762 81.2946 25.2162 81.4013 24.5495C81.5346 23.8829 81.6946 23.1629 81.8813 22.3895C82.0679 21.6162 82.2679 20.8562 82.4813 20.1095L83.3613 17.1095L82.2013 16.0695L83.1613 10.0295C84.0146 9.8962 84.7613 9.72286 85.4013 9.50953C86.0679 9.2962 86.6146 9.10953 87.0413 8.94953C87.4946 8.78953 87.8146 8.70953 88.0013 8.70953C88.2946 8.70953 88.4413 8.86953 88.4413 9.18953C88.4413 9.32286 88.2679 9.8962 87.9213 10.9095C87.6013 11.8962 87.2413 13.1629 86.8413 14.7095C86.4679 16.2562 86.1879 17.9362 86.0013 19.7495L85.1613 28.6695H82.3613ZM89.6884 37.0295C89.3418 37.0295 89.0884 36.9095 88.9284 36.6695C88.7684 36.4562 88.6884 36.1629 88.6884 35.7895C88.6884 35.2295 88.7284 34.6162 88.8084 33.9495L91.7684 9.42953C92.0351 7.3762 92.6218 5.68286 93.5284 4.34953C94.4618 3.0162 95.6618 2.02953 97.1284 1.38953C98.5951 0.74953 100.262 0.42953 102.128 0.42953C104.022 0.42953 105.542 0.696196 106.688 1.22953C107.862 1.7362 108.448 2.5762 108.448 3.74953C108.448 4.6562 108.182 5.32286 107.648 5.74953C107.115 6.14953 106.502 6.34953 105.808 6.34953C105.302 6.34953 104.835 6.20286 104.408 5.90953C104.008 5.6162 103.595 5.28286 103.168 4.90953C102.768 4.50953 102.275 4.16286 101.688 3.86953C101.102 3.5762 100.368 3.42953 99.4884 3.42953C98.2884 3.42953 97.4884 3.88286 97.0884 4.78953C96.7151 5.66953 96.4484 6.84286 96.2884 8.30953L94.9684 19.9495C94.7818 21.5229 94.6218 23.1229 94.4884 24.7495C94.3551 26.3495 94.2218 27.8429 94.0884 29.2295C94.0084 29.8962 93.7951 30.6695 93.4484 31.5495C93.1284 32.4295 92.7284 33.2829 92.2484 34.1095C91.7684 34.9629 91.3018 35.6562 90.8484 36.1895C90.3951 36.7495 90.0084 37.0295 89.6884 37.0295ZM102.288 28.9095C101.835 28.9095 101.542 28.6562 101.408 28.1495C101.275 27.6162 101.208 27.0695 101.208 26.5095C101.208 25.5495 101.248 24.6962 101.328 23.9495C101.435 23.2029 101.542 22.3762 101.648 21.4695C101.755 20.5362 101.862 19.5895 101.968 18.6295C102.075 17.6695 102.182 16.7229 102.288 15.7895C102.422 14.5362 102.502 13.6562 102.528 13.1495C102.582 12.6429 102.528 12.3362 102.368 12.2295C102.208 12.1229 101.915 12.0695 101.488 12.0695L105.008 9.26953C105.622 9.26953 106.075 9.40286 106.368 9.66953C106.662 9.90953 106.848 10.2162 106.928 10.5895C107.035 10.9629 107.088 11.3095 107.088 11.6295C107.088 12.2695 107.062 12.8162 107.008 13.2695C106.955 13.7229 106.875 14.3762 106.768 15.2295L106.088 21.1095C105.928 22.4962 105.782 23.6562 105.648 24.5895C105.542 25.5229 105.435 26.3229 105.328 26.9895C105.248 27.6562 105.168 28.2962 105.088 28.9095H102.288ZM89.4884 12.0695C89.3018 12.0695 89.1684 12.0029 89.0884 11.8695C89.0084 11.7362 88.9951 11.5762 89.0484 11.3895L89.3284 10.6295C89.5418 10.0962 89.7418 9.7362 89.9284 9.54953C90.1418 9.36286 90.6618 9.26953 91.4884 9.26953H105.008L103.168 12.0695H89.4884ZM113.388 27.3095L112.428 21.2695C113.414 18.7095 114.414 16.4962 115.428 14.6295C116.468 12.7362 117.521 11.2695 118.588 10.2295C119.654 9.18953 120.734 8.66953 121.828 8.66953C122.441 8.66953 122.881 8.86953 123.148 9.26953C123.414 9.64286 123.548 10.1229 123.548 10.7095C123.548 11.2429 123.481 11.7629 123.348 12.2695C123.241 12.7495 123.068 13.1495 122.828 13.4695C122.614 13.7895 122.348 13.9495 122.028 13.9495C121.734 13.9495 121.401 13.8562 121.028 13.6695C120.681 13.4829 120.201 13.3895 119.588 13.3895C119.188 13.3895 118.681 13.8029 118.068 14.6295C117.454 15.4562 116.814 16.5629 116.148 17.9495C115.508 19.3095 114.934 20.8162 114.428 22.4695C113.921 24.0962 113.574 25.7095 113.388 27.3095ZM110.028 28.8295C109.681 28.8295 109.414 28.7629 109.228 28.6295C109.068 28.5229 108.974 28.2162 108.948 27.7095C108.948 27.2029 109.014 26.3895 109.148 25.2695L111.028 8.62953H113.828C114.228 8.62953 114.588 8.92286 114.908 9.50953C115.228 10.0962 115.388 10.7629 115.388 11.5095C115.388 11.8562 115.281 12.4029 115.068 13.1495C114.881 13.8695 114.654 14.6429 114.388 15.4695C114.121 16.2695 113.881 16.9762 113.668 17.5895L112.628 20.8695L114.108 20.6295L113.388 27.3095C113.361 27.5762 113.201 27.8162 112.908 28.0295C112.614 28.2162 112.268 28.3629 111.868 28.4695C111.494 28.6029 111.134 28.6962 110.788 28.7495C110.441 28.8029 110.188 28.8295 110.028 28.8295Z" fill="black"/>
</g>
<defs>
<filter id="filter0_d_27_284" x="0.0625" y="0.389648" width="127.485" height="44.6396" filterUnits="userSpaceOnUse" color-interpolation-filters="sRGB">
<feFlood flood-opacity="0" result="BackgroundImageFix"/>
<feColorMatrix in="SourceAlpha" type="matrix" values="0 0 0 0 0 0 0 0 0 0 0 0 0 0 0 0 0 0 127 0" result="hardAlpha"/>
<feOffset dy="4"/>
<feGaussianBlur stdDeviation="2"/>
<feComposite in2="hardAlpha" operator="out"/>
<feColorMatrix type="matrix" values="0 0 0 0 0 0 0 0 0 0 0 0 0 0 0 0 0 0 0.25 0"/>
<feBlend mode="normal" in2="BackgroundImageFix" result="effect1_dropShadow_27_284"/>
<feBlend mode="normal" in="SourceGraphic" in2="effect1_dropShadow_27_284" result="shape"/>
</filter>
</defs>
</svg>
